<svg id="Capa_1" enable-background="new 0 0 512 512" height="512" viewBox="0 0 512 512" width="512" xmlns="http://www.w3.org/2000/svg"><g><g><g><path d="m349.36 345.93 13.28 31.25h-27.73z"/><path d="m466.64 260.72-8.71-67.09c-1.263-9.659-11.284-15.616-20.38-12.02l-88.19 34.78-2.62 1.04c-26.4 61.1-86.52 104.34-156.76 106.14-15.031 48.771-3.991 105.514 36.25 145.77 27.52 27.51 64.1 42.66 103 42.66h37.11c80.32 0 145.66-65.34 145.66-145.66 0-41.852-17.521-79.325-45.36-105.62zm-62.05 176.82c-7.753 3.271-16.477-.407-19.67-7.94l-9.53-22.42h-54.36l-10.56 22.85c-3.484 7.516-12.391 10.802-19.91 7.32-7.52-3.48-10.8-12.39-7.32-19.91l14.58-31.54c0-.01.01-.01.01-.01l38.5-83.24c5.451-11.798 22.344-11.515 27.42.43l35.37 83.24v.01l13.41 31.54c3.24 7.62-.32 16.43-7.94 19.67z"/></g></g><g><g><path d="m185.42 0h-39.79c-80.3 0-145.63 65.34-145.63 145.64 0 34.834 10.457 64.999 29.36 90.05l8.77 83.72c1.063 10.118 11.629 16.233 20.94 12.18l86.64-37.96h39.71c80.3 0 145.63-65.34 145.63-145.64v-2.35c0-80.3-65.33-145.64-145.63-145.64zm22.04 178.55c12.85 15.94 27.26 26.55 27.41 26.65 6.69 4.89 8.15 14.27 3.27 20.96-4.911 6.731-14.321 8.137-20.96 3.27-10.14-7.324-24.752-21.082-36.65-36.61v24.5c0 8.28-6.72 15-15 15h-.01c-8.28-.01-14.99-6.72-14.99-15v-24.5c-12.77 16.665-27.835 30.243-36.65 36.61-6.639 4.867-16.049 3.462-20.96-3.27-4.88-6.69-3.42-16.07 3.27-20.96.13-.09 14.69-10.86 27.42-26.65 11.69-14.52 22.66-32.88 26.92-40.25v-16.34h-45.49c-8.29 0-15-6.71-15-15 0-8.28 6.71-15 15-15h45.49v-15.65c0-8.28 6.71-14.99 14.99-15h.01c8.28 0 15 6.72 15 15v15.65h45.49c8.29 0 15 6.72 15 15 0 8.29-6.71 15-15 15h-45.49v16.33c4.27 7.39 15.26 25.78 26.93 40.26z"/></g></g><path d="m349.36 345.93-14.45 31.25h27.73zm0 0-14.45 31.25h27.73z"/></g></svg>